PathFileType	4	(X/Y/Z)	/home/abdul/Desktop/myosuite/custom_workspace/IK/output/S14_12_2.trc
DataRate	CameraRate	NumFrames	NumMarkers	Units	OrigDataRate	OrigDataStartFrame	OrigNumFrames
200.0	200.0	22	3	mm	200.0	1063	2124
Frame#	Time	V_Shoulder			V_Elbow			V_Wrist		
		X1	Y1	Z1	X2	Y2	Z2	X3	Y3	Z3

1063	5.31	-168.21838526050792	696.8836885763362	310.971226624821	-195.6476513191413	475.4521253504356	59.086502244725224	-111.89757012288933	517.6452585567665	281.2326314049438
1064	5.315	-168.17159615692688	696.9708965680544	311.03480459083517	-195.59375427692717	475.278287273665	59.435414497267914	-111.79029976582075	517.8333213645401	281.49601770737286
1065	5.32	-168.1246027256066	697.0576632051244	311.0978475115912	-195.54514708572515	475.1098416690098	59.778549415525006	-111.68350223716814	518.0177986733371	281.7525809739849
1066	5.325	-168.07743434890565	697.1439988170432	311.1603334075465	-195.5018384749036	474.9468145435156	60.11584985069256	-111.57729096372724	518.198716988255	282.0023173085796
1067	5.33	-168.03012088185048	697.2299129478673	311.22224082124234	-195.46382655382496	474.78922162560133	60.447268886392756	-111.47177800888556	518.3761078035485	282.24523510076995
1068	5.335	-167.982692617526	697.3154143248607	311.28354885391053	-195.43109878461334	474.637068220188	60.772769953474665	-111.36707377950175	518.550007464097	282.4813550228644
1069	5.34	-167.93518025112496	697.4005108288129	311.3442372008725	-195.40363198719695	474.49034910054695	61.09232690847121	-111.26328673659384	518.7204570079614	282.7107099816552
1070	5.345	-167.8876148427316	697.4852094661414	311.4042861856185	-195.38139237684817	474.34904843729424	61.405924075568144	-111.16052311118187	518.8875019911757	282.93334502560356
1071	5.35	-167.8400277789192	697.5695163428962	311.46367679246214	-195.36433563432013	474.21313976479763	61.71355625209725	-111.05888662660257	519.0511922959433	283.14931720810534
1072	5.355	-167.7924507332437	697.6534366407765	311.5223906976674	-195.35240700855567	474.08258598510963	62.015228677720465	-110.95847822857888	519.2115819234235	283.35869540770807
1073	5.36	-167.74491562571902	697.7369745952701	311.58041029895054	-195.34554145181943	473.9573394093843	62.310956967623625	-110.85939582428296	519.3687287722989	283.56156010632884
1074	5.365	-167.69745458136074	697.82013347602	311.6377187432674	-195.34366378697553	473.83734183658106	62.60076701018684	-110.761734031582	519.5226944043252	283.7580031266949
1075	5.37	-167.65009988788913	697.902915569522	311.69429995279876	-195.34668890650852	473.72252466910743	62.88469482974331	-110.66558393959968	519.6735437980645	283.94812733039123
1076	5.375	-167.60288395268188	697.9853221642478	311.75013864905554	-195.35452200275643	473.6128090649037	63.162786415178374	-110.57103288166245	519.8213450920005	284.1320462780531
1077	5.38	-167.55583925907217	698.0673535382867	311.80522037502965	-195.36705882869947	473.50810612532496	63.435097515255855	-110.47816422163268	519.9661693182356	284.3098838533866
1078	5.385	-167.5089983220854	698.1490089495883	311.85953151532544	-195.38418598852266	473.40831711803685	63.701693401687734	-110.38705715455595	520.108090127961	284.48177385283213
1079	5.39	-167.4623936437123	698.2302866288882	311.9130593142124	-195.40578125704826	473.3133337339991	63.96264860108664	-110.29778652247202	520.2471835098871	284.647859542809
1080	5.395	-167.41605766781512	698.3111837753864	311.9657918915461	-195.43171392701356	473.2230383774824	64.21804659705708	-110.21042264615677	520.3835275028171	284.80829318659136
1081	5.4	-167.37002273476583	698.3916965552418	312.01771825651485	-195.46184518305245	473.13730448793433	64.46797950379131	-110.12503117347632	520.5172019035351	284.96323554296487
1082	5.405	-167.32432103591404	698.4718201029385	312.0688283191732	-195.49602850112677	473.0559968923882	64.71254771263764	-110.0416729449463	520.6482879711834	285.11285533889986
1083	5.41	-167.27898456798485	698.5515485255715	312.1191128997338	-195.53411007204426	472.97897218699535	64.95185951320398	-109.96040387699834	520.7768681292882	285.2573287185564
1084	5.415	-167.2340450875046	698.6308749100887	312.16856373559756	-195.57592924759822	472.9060791461501	65.18603069064582	-109.88127486336263	520.9030256665941	285.39683867099563
